<svg version="1.1" xmlns="http://www.w3.org/2000/svg" viewBox="0 0 250 250"><desc>Created with Snap</desc><defs></defs><g transform="matrix(0.1686,0,0,0.1686,43.9659,185.5437)"><rect x="-260.7" y="-1025.2" width="1482.4" height="1332.4" fill="#000000" style=""></rect><g><g transform="matrix(0.5,0,0,-0.5,0,0)"><path d="M93 1421L630 1421L630 1362Q601 1350 575 1343Q549 1336 530 1325Q487 1301 487 1237L487 184Q487 120 530 96Q550 85 576 78Q602 71 632 59L632 0L93 0L93 59Q122 71 148 78Q174 85 194 96Q238 120 238 184L238 1237Q238 1301 194 1325Q174 1336 148 1343Q122 1350 93 1362L93 1421ZM1596 1281Q1564 1307 1517 1320Q1470 1333 1395 1333Q1321 1333 1281 1325L1281 1421L1618 1421Q1685 1421 1829 1436L1829 946L1763 946Q1727 984 1710 1044Q1693 1105 1681 1143Q1669 1182 1648 1219Q1628 1256 1596 1281ZM1198 1421L1198 227Q1198 148 1213 125Q1228 103 1242 96Q1256 90 1274 85Q1292 81 1313 76Q1335 71 1360 59L1360 0L809 0L809 59Q833 74 863 82Q894 90 907 97Q920 104 929 119Q949 150 949 233L949 1186Q949 1270 934 1293Q920 1316 907 1322Q895 1329 879 1334Q829 1348 809 1362L809 1421L1198 1421ZM1281 646L1281 834L1573 834L1573 646L1281 646Z" fill="#ffffff" style=""></path></g></g></g></svg>